<svg id="butterfly" xmlns="http://www.w3.org/2000/svg" width="33.053" height="31.986" viewBox="0 0 33.053 31.986">
  <path id="Path_24717" data-name="Path 24717" d="M809.64,316.693c2.336-8.892,7.383-15.575,15.856-19.206,5.339-2.288,8.754.43,8.363,6.248a11.066,11.066,0,0,1-6.288,9.534,70.615,70.615,0,0,1-7.254,2.881,16.015,16.015,0,0,1,2.007,1.518,3.961,3.961,0,0,1,.844,4.516A3.8,3.8,0,0,1,819.1,324a11.678,11.678,0,0,1-5.822-2.617,24.084,24.084,0,0,0,2.807,1.244,17.4,17.4,0,0,0,3.569.714,2.762,2.762,0,0,0,3-1.878,2.889,2.889,0,0,0-1.048-3.4,11.962,11.962,0,0,0-2.233-1.247c-.469-.239-.969-.418-1.457-.625l-.065-.418a25.107,25.107,0,0,1,2.54-.9,18.813,18.813,0,0,0,9.03-4.751,9.429,9.429,0,0,0,2.936-8.4c-.4-2.89-2.24-4.3-5.134-3.884a14.7,14.7,0,0,0-6.963,3.2,31.8,31.8,0,0,0-9.945,14.032c-.165.421-.322.844-.491,1.262A3.56,3.56,0,0,1,809.64,316.693Z" transform="translate(-800.837 -292.057)" fill="#fff"/>
  <path id="Path_24718" data-name="Path 24718" d="M798.32,283.58c.159-3.611.207-7.232.531-10.829a11.132,11.132,0,0,1,1.375-4.074,3.434,3.434,0,0,1,4.395-1.737,10.3,10.3,0,0,1,5.535,4.472,28.422,28.422,0,0,0-2.5-2.1c-3.264-2.179-6.728-1.149-7.712,2.62a62.133,62.133,0,0,0-1.151,9.112,25.471,25.471,0,0,0-.014,2.685Z" transform="translate(-791.264 -266.725)" fill="#fff"/>
  <path id="Path_24719" data-name="Path 24719" d="M783.921,421.044l1.2.954c-.017.054-.035.108-.052.16-.4-.174-.966-.245-1.147-.548a1.8,1.8,0,0,1-.116-1.413c.082-.2.886-.336,1.208-.18a5,5,0,0,1,1.444,1.2,23.8,23.8,0,0,1,4.449,7.01c-2.256-2.5-3.071-6.306-6.527-7.706Z" transform="translate(-778.908 -396.305)" fill="#fff"/>
  <path id="Path_24720" data-name="Path 24720" d="M756.189,397.223l-3.6-1.467C753.57,395.135,755.032,395.692,756.189,397.223Z" transform="translate(-752.59 -375.635)" fill="#fff"/>
</svg>
